<?xml version="1.0" encoding="iso-8859-1"?>
<!-- Generator: Adobe Illustrator 19.0.0, SVG Export Plug-In . SVG Version: 6.00 Build 0)  -->
<svg version="1.1" id="Capa_1" xmlns="http://www.w3.org/2000/svg" xmlns:xlink="http://www.w3.org/1999/xlink" x="0px" y="0px"
	 viewBox="0 0 512 512" style="enable-background:new 0 0 512 512;" xml:space="preserve">
<path style="fill:#303C42;" d="M10.667,384.003c17.813,0,26.208,4.385,35.927,9.458c10.667,5.563,22.76,11.875,45.813,11.875
	c23.042,0,35.125-6.313,45.792-11.875c9.719-5.073,18.104-9.458,35.917-9.458s26.208,4.385,35.927,9.458
	c10.667,5.563,22.75,11.875,45.792,11.875c23.052,0,35.146-6.313,45.813-11.875c9.719-5.073,18.115-9.458,35.938-9.458
	c17.854,0,26.271,4.385,36.01,9.458c10.677,5.563,22.781,11.875,45.865,11.875s35.188-6.313,45.865-11.875
	c9.74-5.073,18.156-9.458,36.01-9.458c5.896,0,10.667-4.771,10.667-10.667c0-5.896-4.771-10.667-10.667-10.667
	c-23.083,0-35.188,6.313-45.865,11.875c-2.512,1.309-4.948,2.56-7.469,3.714V234.669h32c4.469,0,8.458-2.781,10-6.969
	c1.552-4.188,0.333-8.896-3.063-11.792l-224-192c-3.979-3.438-9.896-3.438-13.875,0l-224,192c-3.396,2.896-4.615,7.604-3.063,11.792
	c1.542,4.188,5.531,6.969,10,6.969h32v143.618c-2.542-1.163-5-2.422-7.531-3.743c-10.667-5.563-22.75-11.875-45.802-11.875
	C4.771,362.669,0,367.44,0,373.336C0,379.232,4.771,384.003,10.667,384.003z"/>
<path style="fill:#9CADB7;" d="M291.771,374.544c-9.719,5.073-18.115,9.458-35.938,9.458c-17.813,0-26.198-4.385-35.917-9.458
	c-7.451-3.885-15.827-8.021-27.917-10.23v-86.978h128v86.909C307.728,366.438,299.289,370.624,291.771,374.544z"/>
<path style="opacity:0.2;fill:#FFFFFF;enable-background:new    ;" d="M213.333,320.003c0-11.782,9.551-21.333,21.333-21.333H320
	v-21.333H192v86.978c8.701,1.59,15.44,4.188,21.333,6.961V320.003z"/>
<path style="fill:#15BEF0;" d="M74.667,213.336H60.833L256,46.055l195.167,167.281h-13.833c-5.896,0-10.667,4.771-10.667,10.667
	v159.533c-2.327,0.191-4.479,0.467-7.208,0.467c-17.854,0-26.271-4.385-36.01-9.458c-10.027-5.224-21.658-10.917-42.115-11.613
	v-96.262c0-5.896-4.771-10.667-10.667-10.667H181.333c-5.896,0-10.667,4.771-10.667,10.667v96.241
	c-20.618,0.647-32.275,6.384-42.344,11.634c-9.719,5.073-18.104,9.458-35.917,9.458c-2.678,0-4.784-0.275-7.073-0.46v-159.54
	C85.333,218.107,80.563,213.336,74.667,213.336z"/>
<path style="opacity:0.2;fill:#FFFFFF;enable-background:new    ;" d="M74.667,213.336c5.896,0,10.667,4.771,10.667,10.667v159.54
	c2.289,0.185,4.395,0.46,7.073,0.46c10.457,0,17.543-1.603,23.68-3.876V224.003c0-5.896-3.911-10.667-8.745-10.667H96L256,46.055
	L60.833,213.336H74.667z"/>
<path style="opacity:0.1;enable-background:new    ;" d="M256,46.055l160,167.281h-11.341c-4.833,0-8.745,4.771-8.745,10.667
	v156.201c6.109,2.233,13.177,3.799,23.544,3.799c2.729,0,4.882-0.276,7.208-0.467V224.003c0-5.896,4.771-10.667,10.667-10.667
	h13.833L256,46.055z"/>
<path style="fill:#303C42;" d="M501.333,448.003c-23.083,0-35.188,6.313-45.865,11.875c-9.74,5.073-18.156,9.458-36.01,9.458
	s-26.271-4.385-36.01-9.458c-10.677-5.563-22.781-11.875-45.865-11.875c-23.052,0-35.146,6.313-45.813,11.875
	c-9.719,5.073-18.115,9.458-35.938,9.458c-17.813,0-26.198-4.385-35.917-9.458c-10.667-5.563-22.75-11.875-45.802-11.875
	c-23.042,0-35.125,6.313-45.792,11.875c-9.719,5.073-18.104,9.458-35.917,9.458c-17.823,0-26.219-4.385-35.938-9.458
	c-10.667-5.563-22.75-11.875-45.802-11.875C4.771,448.003,0,452.773,0,458.669s4.771,10.667,10.667,10.667
	c17.813,0,26.208,4.385,35.927,9.458c10.667,5.563,22.76,11.875,45.813,11.875c23.042,0,35.125-6.313,45.792-11.875
	c9.719-5.073,18.104-9.458,35.917-9.458s26.208,4.385,35.927,9.458c10.667,5.563,22.75,11.875,45.792,11.875
	c23.052,0,35.146-6.313,45.813-11.875c9.719-5.073,18.115-9.458,35.938-9.458c17.854,0,26.271,4.385,36.01,9.458
	c10.677,5.563,22.781,11.875,45.865,11.875s35.188-6.313,45.865-11.875c9.74-5.073,18.156-9.458,36.01-9.458
	c5.896,0,10.667-4.771,10.667-10.667S507.229,448.003,501.333,448.003z"/>
<linearGradient id="SVGID_1_" gradientUnits="userSpaceOnUse" x1="-45.1915" y1="637.1927" x2="-21.9993" y2="626.3831" gradientTransform="matrix(21.3333 0 0 -21.3333 996.3334 13791.667)">
	<stop  offset="0" style="stop-color:#FFFFFF;stop-opacity:0.2"/>
	<stop  offset="1" style="stop-color:#FFFFFF;stop-opacity:0"/>
</linearGradient>
<path style="fill:url(#SVGID_1_);" d="M10.667,384.003c17.813,0,26.208,4.385,35.927,9.458c10.667,5.563,22.76,11.875,45.813,11.875
	c23.042,0,35.125-6.313,45.792-11.875c9.719-5.073,18.104-9.458,35.917-9.458s26.208,4.385,35.927,9.458
	c10.667,5.563,22.75,11.875,45.792,11.875c23.052,0,35.146-6.313,45.813-11.875c9.719-5.073,18.115-9.458,35.938-9.458
	c17.854,0,26.271,4.385,36.01,9.458c10.677,5.563,22.781,11.875,45.865,11.875s35.188-6.313,45.865-11.875
	c9.74-5.073,18.156-9.458,36.01-9.458c5.896,0,10.667-4.771,10.667-10.667c0-5.896-4.771-10.667-10.667-10.667
	c-23.083,0-35.188,6.313-45.865,11.875c-2.512,1.309-4.948,2.56-7.469,3.714V234.669h32c4.469,0,8.458-2.781,10-6.969
	c1.552-4.188,0.333-8.896-3.063-11.792l-224-192c-3.979-3.438-9.896-3.438-13.875,0l-224,192c-3.396,2.896-4.615,7.604-3.063,11.792
	c1.542,4.188,5.531,6.969,10,6.969h32v143.618c-2.542-1.163-5-2.422-7.531-3.743c-10.667-5.563-22.75-11.875-45.802-11.875
	C4.771,362.669,0,367.44,0,373.336C0,379.232,4.771,384.003,10.667,384.003z M501.333,448.003c-23.083,0-35.188,6.313-45.865,11.875
	c-9.74,5.073-18.156,9.458-36.01,9.458s-26.271-4.385-36.01-9.458c-10.677-5.563-22.781-11.875-45.865-11.875
	c-23.052,0-35.146,6.313-45.813,11.875c-9.719,5.073-18.115,9.458-35.938,9.458c-17.813,0-26.198-4.385-35.917-9.458
	c-10.667-5.563-22.75-11.875-45.802-11.875c-23.042,0-35.125,6.313-45.792,11.875c-9.719,5.073-18.104,9.458-35.917,9.458
	c-17.823,0-26.219-4.385-35.938-9.458c-10.667-5.563-22.75-11.875-45.802-11.875C4.771,448.003,0,452.773,0,458.669
	s4.771,10.667,10.667,10.667c17.813,0,26.208,4.385,35.927,9.458c10.667,5.563,22.76,11.875,45.813,11.875
	c23.042,0,35.125-6.313,45.792-11.875c9.719-5.073,18.104-9.458,35.917-9.458s26.208,4.385,35.927,9.458
	c10.667,5.563,22.75,11.875,45.792,11.875c23.052,0,35.146-6.313,45.813-11.875c9.719-5.073,18.115-9.458,35.938-9.458
	c17.854,0,26.271,4.385,36.01,9.458c10.677,5.563,22.781,11.875,45.865,11.875s35.188-6.313,45.865-11.875
	c9.74-5.073,18.156-9.458,36.01-9.458c5.896,0,10.667-4.771,10.667-10.667S507.229,448.003,501.333,448.003z"/>
<g>
</g>
<g>
</g>
<g>
</g>
<g>
</g>
<g>
</g>
<g>
</g>
<g>
</g>
<g>
</g>
<g>
</g>
<g>
</g>
<g>
</g>
<g>
</g>
<g>
</g>
<g>
</g>
<g>
</g>
</svg>
