<?xml version="1.0" encoding="iso-8859-1"?>
<!-- Generator: Adobe Illustrator 19.0.0, SVG Export Plug-In . SVG Version: 6.00 Build 0)  -->
<svg version="1.1" id="Capa_1" xmlns="http://www.w3.org/2000/svg" xmlns:xlink="http://www.w3.org/1999/xlink" x="0px" y="0px"
	 viewBox="0 0 512 512" style="enable-background:new 0 0 512 512;" xml:space="preserve">
<path style="fill:#303C42;" d="M469.333,255.998H344.896c-4.396,0-8.354,2.698-9.938,6.802l-24.896,64
	c-0.979,2.521-0.979,5.313,0.042,7.823l18.208,45.562l-41.146,29.396l10.958-32.875c1.271-3.833,0.271-8.063-2.583-10.917
	l-38.521-38.531l2.905-13.066l31.887,5.639c0.604,0.115,1.229,0.167,1.854,0.167c2.167,0,4.313-0.667,6.125-1.927
	c2.313-1.625,3.896-4.104,4.375-6.896l24.479-139.135l21.5,3.792c4.5,0.823,8.813-1.271,11.063-5.115
	c2.25-3.844,1.875-8.698-0.958-12.146L233.479,3.904c-3.333-4.104-9.188-5.073-13.688-2.417L47.896,103.373
	c-3.833,2.271-5.854,6.698-5.063,11.083c0.813,4.396,4.25,7.823,8.646,8.594l21.5,3.802L50.26,255.998h-7.594
	C19.146,255.998,0,275.133,0,298.664v202.667c0,5.896,4.771,10.667,10.667,10.667h490.667c5.896,0,10.667-4.771,10.667-10.667
	V298.664C512,275.133,492.854,255.998,469.333,255.998z"/>
<path style="fill:#15BEF0;" d="M95.833,120.05c1.021-5.792-2.854-11.323-8.646-12.344l-3.667-0.656l139.271-82.542L325.479,149.81
	l-3.625-0.635c-2.813-0.521-5.646,0.135-7.979,1.76c-2.313,1.625-3.896,4.104-4.375,6.896l-24.479,139.135l-20.461-3.613
	l5.419-24.376c0.708-3.156-0.063-6.458-2.104-8.99c-2.021-2.521-5.083-3.99-8.313-3.99h-22.674l15.174-86.292
	c1.021-5.792-2.854-11.323-8.646-12.344l-85.333-15.083c-2.813-0.51-5.646,0.135-7.979,1.76c-2.313,1.625-3.896,4.104-4.375,6.896
	l-18.47,105.063H71.91L95.833,120.05z"/>
<path style="opacity:0.2;fill:#FFFFFF;enable-background:new    ;" d="M95.833,120.05l-0.184,1.042l117.051-69.372
	c8.788-5.208,20.061-3.219,26.536,4.681l76.719,93.615c1.867-0.785,3.854-1.219,5.898-0.84l3.625,0.635L222.792,24.508
	L83.521,107.05l3.667,0.656C92.979,108.727,96.854,114.258,95.833,120.05z"/>
<polygon style="fill:#9CADB7;" points="215.238,255.998 148.91,255.998 164.896,165.143 229.208,176.508 "/>
<path style="opacity:0.2;fill:#FFFFFF;enable-background:new    ;" d="M173.826,193.607c1.193-6.779,7.658-11.305,14.435-10.107
	l38.522,6.807l2.426-13.799l-64.313-11.365l-15.986,90.854h13.938L173.826,193.607z"/>
<path style="fill:#AB6116;" d="M490.667,490.664H21.333v-192c0-11.76,9.563-21.333,21.333-21.333h203.604l-11.354,51.021
	c-0.792,3.563,0.292,7.271,2.875,9.854l38,38.01l-19.25,57.74c-1.458,4.385,0.063,9.208,3.792,11.958
	c3.708,2.75,8.792,2.781,12.542,0.094l74.667-53.333c4-2.854,5.521-8.073,3.688-12.635l-19.771-49.427l20.729-53.281h117.146
	c11.771,0,21.333,9.573,21.333,21.333V490.664z"/>
<path style="opacity:0.1;enable-background:new    ;" d="M469.333,277.331h-10.667v149.333c0,23.564-19.103,42.667-42.667,42.667
	H21.333v21.333h469.333v-192C490.667,286.904,481.104,277.331,469.333,277.331z"/>
<linearGradient id="SVGID_1_" gradientUnits="userSpaceOnUse" x1="-46.6908" y1="637.0571" x2="-21.555" y2="625.3351" gradientTransform="matrix(21.3333 0 0 -21.3333 996.3334 13791.667)">
	<stop  offset="0" style="stop-color:#FFFFFF;stop-opacity:0.2"/>
	<stop  offset="1" style="stop-color:#FFFFFF;stop-opacity:0"/>
</linearGradient>
<path style="fill:url(#SVGID_1_);" d="M469.333,255.998H344.896c-4.396,0-8.354,2.698-9.938,6.802l-24.896,64
	c-0.979,2.521-0.979,5.313,0.042,7.823l18.208,45.562l-41.146,29.396l10.958-32.875c1.271-3.833,0.271-8.063-2.583-10.917
	l-38.521-38.531l2.905-13.066l31.887,5.639c0.604,0.115,1.229,0.167,1.854,0.167c2.167,0,4.313-0.667,6.125-1.927
	c2.313-1.625,3.896-4.104,4.375-6.896l24.479-139.135l21.5,3.792c4.5,0.823,8.813-1.271,11.063-5.115
	c2.25-3.844,1.875-8.698-0.958-12.146L233.479,3.904c-3.333-4.104-9.188-5.073-13.688-2.417L47.896,103.373
	c-3.833,2.271-5.854,6.698-5.063,11.083c0.813,4.396,4.25,7.823,8.646,8.594l21.5,3.802L50.26,255.998h-7.594
	C19.146,255.998,0,275.133,0,298.664v202.667c0,5.896,4.771,10.667,10.667,10.667h490.667c5.896,0,10.667-4.771,10.667-10.667
	V298.664C512,275.133,492.854,255.998,469.333,255.998z"/>
<g>
</g>
<g>
</g>
<g>
</g>
<g>
</g>
<g>
</g>
<g>
</g>
<g>
</g>
<g>
</g>
<g>
</g>
<g>
</g>
<g>
</g>
<g>
</g>
<g>
</g>
<g>
</g>
<g>
</g>
</svg>
