<?xml version="1.0" encoding="UTF-8"?>
<svg width="391px" height="84px" viewBox="0 0 391 84" version="1.1" xmlns="http://www.w3.org/2000/svg" xmlns:xlink="http://www.w3.org/1999/xlink">
    <!-- Generator: Sketch 55.2 (78181) - https://sketchapp.com -->
    <title>Group 4</title>
    <desc>Created with Sketch.</desc>
    <g id="Page-1" stroke="none" stroke-width="1" fill="none" fill-rule="evenodd">
        <g id="Artboard" transform="translate(-200.000000, -778.000000)" fill="#457FCA">
            <g id="Group-4" transform="translate(200.000000, 779.000000)">
                <path d="M121,82 L113,82 L113,11 L121,11 L121,82 Z M156,11 L185.927536,11 C200.231884,11 208.855072,17.5928571 208.855072,28.75 C208.855072,37.0671429 204.086957,43.0514286 195.768116,44.7757143 C206.014493,46.2971429 212,52.9914286 212,62.7285714 C212,74.7985714 202.463768,82 186.434783,82 L156,82 L156,11 Z M165,19 L165,41 L186.1,41 C195.5,41 201,36.9911111 201,29.8533333 C201,22.9111111 195.5,19 186.1,19 L165,19 Z M164,50 L164,75 L185.046036,75 C196.41688,75 203,70.4268293 203,62.296748 C203,54.5731707 196.41688,50 185.046036,50 L164,50 Z M288.717668,82 L273.92714,59.3814286 C272.397086,59.4828571 270.765027,59.5842857 269.132969,59.5842857 L250.160291,59.5842857 L250.160291,82 L242,82 L242,11 L269.132969,11 C286.983607,11 297.285974,19.7228571 297.285974,34.8357143 C297.285974,46.6014286 291.57377,54.5128571 281.271403,57.86 L298,82 L288.717668,82 Z M251,51 L269.841558,51 C282.706494,51 290,45.3138462 290,34.2461538 C290,23.4830769 282.706494,18 269.841558,18 L251,18 L251,51 Z M374.267606,64.0471429 L335.529577,64.0471429 L327.619718,82 L319,82 L350.842254,11 L359.259155,11 L391,82 L382.177465,82 L374.267606,64.0471429 Z M372,57 L355.898089,21 L340,57 L372,57 Z" id="IBRA" fill-rule="nonzero"></path>
                <path d="M90.4351344,82 L33.5716228,82 C32.0500009,82 30.528379,80.8557204 30.1480404,79.3301037 C29.7677018,77.8044869 30.528379,75.8975331 32.0500009,75.1348588 C38.516827,71.7022882 64.6905629,32.7998212 64.6905629,26.3162853 C64.6905629,16.0185735 55.180493,7.62781551 43.7687301,7.62781551 C32.3569672,7.62781551 22.8468973,16.0185735 22.8468973,26.3162853 C22.8468973,30.7022081 24.7615095,35.0881309 28.0021156,38.4115103 C28.8097453,39.2397689 28.655526,39.2650661 30.6629717,40.6818499 C32.0012688,41.6263724 29.1185236,42.1773754 22.0147361,42.3348588 C18.2108151,37.7580086 16,31.6558098 16,25.9349482 C16,11.4419914 28.5530462,0 44.1493361,0 C59.7456261,0 72.2986723,11.8233286 72.2986723,25.9349482 C72.2986723,31.6558098 48.4072355,70.1769396 44.6033145,74.3721845 L91.196079,74.3721845 C93.0980395,74.3721845 95,75.8978012 95,78.1860922 C95,80.4746514 92.3370948,82 90.4351344,82 Z" id="Path" stroke="#457FCA" stroke-width="0.5" fill-rule="nonzero"></path>
                <path d="M74.4999696,54 C87.9971528,54 90,41 90,41 C90,41 82.318257,42.8358889 74.4999696,42.8358889 C66.8194823,42.8358889 59,41 59,41 C59,41 61.0027865,54 74.4999696,54 Z" id="Oval-Copy"></path>
                <path d="M15.7999696,54 C29.2971528,54 31.3,41 31.3,41 C31.3,41 23.618257,42.8358889 15.7999696,42.8358889 C8.11948226,42.8358889 0.3,41 0.3,41 C0.3,41 2.30278646,54 15.7999696,54 Z" id="Oval-Copy-2"></path>
            </g>
        </g>
    </g>
</svg>