<?xml version="1.0" encoding="UTF-8"?>
<svg width="933px" height="467px" viewBox="0 0 933 467" version="1.1" xmlns="http://www.w3.org/2000/svg" xmlns:xlink="http://www.w3.org/1999/xlink">
    <!-- Generator: Sketch 55.2 (78181) - https://sketchapp.com -->
    <title>Group 6</title>
    <desc>Created with Sketch.</desc>
    <defs>
        <linearGradient x1="13.1945673%" y1="43.0240172%" x2="97.0115197%" y2="72.3445964%" id="linearGradient-1">
            <stop stop-color="#FFFFFF" stop-opacity="0.2" offset="0%"></stop>
            <stop stop-color="#FFFFFF" stop-opacity="0" offset="100%"></stop>
        </linearGradient>
        <linearGradient x1="6.29870783%" y1="39.8788279%" x2="102.932157%" y2="80.2904985%" id="linearGradient-2">
            <stop stop-color="#FFFFFF" stop-opacity="0.2" offset="0%"></stop>
            <stop stop-color="#FFFFFF" stop-opacity="0" offset="100%"></stop>
        </linearGradient>
    </defs>
    <g id="Page-1" stroke="none" stroke-width="1" fill="none" fill-rule="evenodd">
        <g id="Artboard" transform="translate(-151.000000, -97.000000)" fill-rule="nonzero">
            <g id="Group-6" transform="translate(151.000000, 97.000000)">
                <g id="tsunami" transform="translate(0.000000, 65.000000)">
                    <path d="M501.333,298.667 C486.77,298.667 480.145,294.646 471.77,289.552 C464.65,285.22 456.766,280.476 444.481,278.409 C380.546,249.27 366.589,193.804 363.553,170.577 C398.428,170.089 426.666,141.655 426.666,106.667 C426.666,71.375 397.958,42.667 362.666,42.667 C347.094,42.667 332.217,44.938 317.857,48.417 C310.853,20.674 285.888,0 256,0 C55.514,0 25.771,286.229 21.875,342.24 C18.424,341.757 14.871,341.334 10.667,341.334 C4.771,341.333 0,346.104 0,352 C0,357.896 4.771,362.667 10.667,362.667 C25.188,362.667 31.792,366.688 40.167,371.782 C49.563,377.51 60.229,384 80.729,384 C101.229,384 111.875,377.5 121.292,371.771 C129.625,366.688 136.209,362.667 150.709,362.667 C165.23,362.667 171.834,366.688 180.209,371.782 C189.604,377.51 200.271,384 220.771,384 C241.292,384 251.959,377.5 261.354,371.771 C269.708,366.688 276.312,362.667 290.833,362.667 C305.375,362.667 311.979,366.688 320.354,371.782 C329.771,377.51 340.438,384 360.938,384 C381.48,384 392.167,377.51 401.584,371.781 C409.959,366.687 416.584,362.666 431.126,362.666 C437.022,362.666 441.793,357.895 441.793,351.999 C441.793,346.103 437.022,341.332 431.126,341.332 C410.605,341.332 399.918,347.822 390.501,353.551 C382.459,358.442 375.855,362.25 362.463,362.552 C328.851,351.823 300.012,326.874 278.697,300.039 C282.155,299.243 285.955,298.665 290.834,298.665 C305.376,298.665 311.98,302.686 320.355,307.78 C329.771,313.51 340.438,320 360.938,320 C381.48,320 392.167,313.51 401.584,307.781 C409.959,302.687 416.584,298.666 431.126,298.666 C445.689,298.666 452.314,302.687 460.689,307.781 C470.104,313.51 480.792,320 501.333,320 C507.229,320 512,315.229 512,309.333 C512,303.437 507.229,298.667 501.333,298.667 Z" id="Path" fill="#303C42"></path>
                    <path d="M288.202,341.546 C269.573,342.125 259.215,348.099 250.271,353.553 C241.896,358.647 235.292,362.669 220.771,362.669 C206.25,362.669 199.646,358.647 191.292,353.564 C181.896,347.835 171.229,341.335 150.709,341.335 C130.23,341.335 119.584,347.825 110.188,353.554 C101.834,358.648 95.23,362.669 80.73,362.669 C66.209,362.669 59.605,358.648 51.251,353.565 C48.634,351.97 45.838,350.348 42.84,348.789 C44.755,313.75 66.548,21.333 256,21.333 C279.521,21.333 298.667,40.468 298.667,64 C298.667,87.532 279.521,106.667 256,106.667 C244.229,106.667 234.667,97.094 234.667,85.334 C234.667,79.282 237.25,73.48 241.792,69.428 C243.834,67.595 246.167,66.188 248.73,65.272 C254.251,63.262 257.126,57.137 255.105,51.605 C253.105,46.063 247.001,43.24 241.438,45.209 C236.313,47.074 231.646,49.876 227.563,53.542 C218.521,61.625 213.334,73.219 213.334,85.334 C213.334,95.234 216.863,104.239 222.54,111.485 C216.44,129.688 206.287,172.963 219.813,233.449 C223.547,250.112 232.892,270.896 246.448,291.793 C239.652,295.744 233.017,298.668 220.771,298.668 C206.25,298.668 199.646,294.647 191.292,289.564 C181.896,283.835 171.229,277.335 150.709,277.335 C144.813,277.335 140.042,282.106 140.042,288.002 C140.042,293.898 144.813,298.669 150.709,298.669 C165.23,298.669 171.834,302.69 180.209,307.784 C189.604,313.51 200.271,320 220.771,320 C239.517,320 249.945,314.574 258.788,309.268 C267.469,320.56 277.342,331.507 288.202,341.546 Z" id="Path" fill="#15BEF0"></path>
                    <path d="M257.898,37.333 C277.695,37.333 294.213,52.192 297.876,71.816 C298.35,69.276 298.666,66.675 298.666,64 C298.666,40.469 279.52,21.333 255.999,21.333 C66.547,21.333 44.754,313.75 42.838,348.786 C45.837,350.345 48.632,351.967 51.249,353.562 C52.468,354.303 53.627,354.955 54.801,355.643 C59.178,295.279 87.868,37.333 257.898,37.333 Z" id="Path" fill="#FFFFFF" opacity="0.2"></path>
                    <path d="M390.5,289.552 C382.125,294.646 375.5,298.667 360.937,298.667 C346.416,298.667 339.812,294.646 331.437,289.563 C322.02,283.823 311.354,277.334 290.833,277.334 C280.002,277.334 272.006,279.186 265.402,281.74 C252.377,261.918 243.741,242.625 240.645,228.782 C229.685,179.844 235.774,143.343 240.743,125.058 C245.496,126.889 250.609,128 256,128 C289.276,128 316.382,102.385 319.405,69.887 C333.122,66.232 347.531,64 362.667,64 C386.188,64 405.334,83.135 405.334,106.667 C405.334,130.199 386.188,149.334 362.667,149.334 C350.896,149.334 341.334,139.761 341.334,128.001 C341.334,121.949 343.917,116.147 348.459,112.095 C350.501,110.262 352.834,108.855 355.397,107.939 C360.918,105.929 363.793,99.804 361.772,94.272 C359.772,88.72 353.647,85.918 348.105,87.876 C342.98,89.741 338.313,92.543 334.23,96.209 C325.188,104.292 320,115.885 320,128 C320,143.806 328.738,157.469 341.536,164.841 C342.683,182.103 350.776,241.381 406.761,281.264 C400.299,283.608 395.233,286.673 390.5,289.552 Z" id="Path" fill="#15BEF0"></path>
                    <path d="M257.535,228.781 C247.083,182.11 252.137,146.946 256.936,127.91 C256.617,127.915 256.32,128 256,128 C250.609,128 245.496,126.889 240.743,125.057 C235.774,143.342 229.686,179.843 240.645,228.781 C243.74,242.625 252.377,261.918 265.402,281.739 C269.545,280.136 274.58,279.027 280.177,278.26 C268.414,259.688 260.447,241.806 257.535,228.781 Z" id="Path" fill="#000000" opacity="0.1"></path>
                    <path d="M388.444,106.667 C388.444,126.676 374.549,143.382 355.945,147.973 C358.087,148.697 360.284,149.334 362.666,149.334 C386.187,149.334 405.333,130.199 405.333,106.667 C405.333,83.135 386.188,64 362.667,64 C359.278,64 356.058,64.49 352.741,64.704 C372.944,68.056 388.444,85.521 388.444,106.667 Z" id="Path" fill="#FFFFFF" opacity="0.2"></path>
                    <path d="M501.333,298.667 C486.77,298.667 480.145,294.646 471.77,289.552 C464.65,285.22 456.766,280.476 444.481,278.409 C380.546,249.27 366.589,193.804 363.553,170.577 C398.428,170.089 426.666,141.655 426.666,106.667 C426.666,71.375 397.958,42.667 362.666,42.667 C347.094,42.667 332.217,44.938 317.857,48.417 C310.853,20.674 285.888,0 256,0 C55.514,0 25.771,286.229 21.875,342.24 C18.424,341.757 14.871,341.334 10.667,341.334 C4.771,341.333 0,346.104 0,352 C0,357.896 4.771,362.667 10.667,362.667 C25.188,362.667 31.792,366.688 40.167,371.782 C49.563,377.51 60.229,384 80.729,384 C101.229,384 111.875,377.5 121.292,371.771 C129.625,366.688 136.209,362.667 150.709,362.667 C165.23,362.667 171.834,366.688 180.209,371.782 C189.604,377.51 200.271,384 220.771,384 C241.292,384 251.959,377.5 261.354,371.771 C269.708,366.688 276.312,362.667 290.833,362.667 C305.375,362.667 311.979,366.688 320.354,371.782 C329.771,377.51 340.438,384 360.938,384 C381.48,384 392.167,377.51 401.584,371.781 C409.959,366.687 416.584,362.666 431.126,362.666 C437.022,362.666 441.793,357.895 441.793,351.999 C441.793,346.103 437.022,341.332 431.126,341.332 C410.605,341.332 399.918,347.822 390.501,353.551 C382.459,358.442 375.855,362.25 362.463,362.552 C328.851,351.823 300.012,326.874 278.697,300.039 C282.155,299.243 285.955,298.665 290.834,298.665 C305.376,298.665 311.98,302.686 320.355,307.78 C329.771,313.51 340.438,320 360.938,320 C381.48,320 392.167,313.51 401.584,307.781 C409.959,302.687 416.584,298.666 431.126,298.666 C445.689,298.666 452.314,302.687 460.689,307.781 C470.104,313.51 480.792,320 501.333,320 C507.229,320 512,315.229 512,309.333 C512,303.437 507.229,298.667 501.333,298.667 Z" id="Path" fill="url(#linearGradient-1)"></path>
                </g>
                <g id="flood" transform="translate(421.000000, 0.000000)">
                    <path d="M10.667,363.003 C28.48,363.003 36.875,367.388 46.594,372.461 C57.261,378.024 69.354,384.336 92.407,384.336 C115.449,384.336 127.532,378.023 138.199,372.461 C147.918,367.388 156.303,363.003 174.116,363.003 C191.929,363.003 200.324,367.388 210.043,372.461 C220.71,378.024 232.793,384.336 255.835,384.336 C278.887,384.336 290.981,378.023 301.648,372.461 C311.367,367.388 319.763,363.003 337.586,363.003 C355.44,363.003 363.857,367.388 373.596,372.461 C384.273,378.024 396.377,384.336 419.461,384.336 C442.545,384.336 454.649,378.023 465.326,372.461 C475.066,367.388 483.482,363.003 501.336,363.003 C507.232,363.003 512.003,358.232 512.003,352.336 C512.003,346.44 507.232,341.669 501.336,341.669 C478.253,341.669 466.148,347.982 455.471,353.544 C452.959,354.853 450.523,356.104 448.002,357.258 L448.002,213.669 L480.002,213.669 C484.471,213.669 488.46,210.888 490.002,206.7 C491.554,202.512 490.335,197.804 486.939,194.908 L262.939,2.908 C258.96,-0.53 253.043,-0.53 249.064,2.908 L25.064,194.908 C21.668,197.804 20.449,202.512 22.001,206.7 C23.543,210.888 27.532,213.669 32.001,213.669 L64.001,213.669 L64.001,357.287 C61.459,356.124 59.001,354.865 56.47,353.544 C45.803,347.981 33.72,341.669 10.668,341.669 C4.771,341.669 0,346.44 0,352.336 C0,358.232 4.771,363.003 10.667,363.003 Z" id="Path" fill="#303C42"></path>
                    <path d="M291.771,353.544 C282.052,358.617 273.656,363.002 255.833,363.002 C238.02,363.002 229.635,358.617 219.916,353.544 C212.465,349.659 204.089,345.523 191.999,343.314 L191.999,256.336 L319.999,256.336 L319.999,343.245 C307.728,345.438 299.289,349.624 291.771,353.544 Z" id="Path" fill="#9CADB7"></path>
                    <path d="M213.333,299.003 C213.333,287.221 222.884,277.67 234.666,277.67 L320,277.67 L320,256.337 L192,256.337 L192,343.315 C200.701,344.905 207.44,347.503 213.333,350.276 L213.333,299.003 Z" id="Path" fill="#FFFFFF" opacity="0.2"></path>
                    <path d="M74.667,192.336 L60.833,192.336 L256,25.055 L451.167,192.336 L437.334,192.336 C431.438,192.336 426.667,197.107 426.667,203.003 L426.667,362.536 C424.34,362.727 422.188,363.003 419.459,363.003 C401.605,363.003 393.188,358.618 383.449,353.545 C373.422,348.321 361.791,342.628 341.334,341.932 L341.334,245.67 C341.334,239.774 336.563,235.003 330.667,235.003 L181.333,235.003 C175.437,235.003 170.666,239.774 170.666,245.67 L170.666,341.911 C150.048,342.558 138.391,348.295 128.322,353.545 C118.603,358.618 110.218,363.003 92.405,363.003 C89.727,363.003 87.621,362.728 85.332,362.543 L85.332,203.003 C85.333,197.107 80.563,192.336 74.667,192.336 Z" id="Path" fill="#15BEF0"></path>
                    <path d="M74.667,192.336 C80.563,192.336 85.334,197.107 85.334,203.003 L85.334,362.543 C87.623,362.728 89.729,363.003 92.407,363.003 C102.864,363.003 109.95,361.4 116.087,359.127 L116.087,203.003 C116.087,197.107 112.176,192.336 107.342,192.336 L96,192.336 L256,25.055 L60.833,192.336 L74.667,192.336 Z" id="Path" fill="#FFFFFF" opacity="0.2"></path>
                    <path d="M256,25.055 L416,192.336 L404.659,192.336 C399.826,192.336 395.914,197.107 395.914,203.003 L395.914,359.204 C402.023,361.437 409.091,363.003 419.458,363.003 C422.187,363.003 424.34,362.727 426.666,362.536 L426.666,203.003 C426.666,197.107 431.437,192.336 437.333,192.336 L451.166,192.336 L256,25.055 Z" id="Path" fill="#000000" opacity="0.1"></path>
                    <path d="M501.333,406.003 C478.25,406.003 466.145,412.316 455.468,417.878 C445.728,422.951 437.312,427.336 419.458,427.336 C401.604,427.336 393.187,422.951 383.448,417.878 C372.771,412.315 360.667,406.003 337.583,406.003 C314.531,406.003 302.437,412.316 291.77,417.878 C282.051,422.951 273.655,427.336 255.832,427.336 C238.019,427.336 229.634,422.951 219.915,417.878 C209.248,412.315 197.165,406.003 174.113,406.003 C151.071,406.003 138.988,412.316 128.321,417.878 C118.602,422.951 110.217,427.336 92.404,427.336 C74.581,427.336 66.185,422.951 56.466,417.878 C45.799,412.315 33.716,406.003 10.664,406.003 C4.771,406.003 2.84217094e-13,410.773 2.84217094e-13,416.669 C2.84217094e-13,422.565 4.771,427.336 10.667,427.336 C28.48,427.336 36.875,431.721 46.594,436.794 C57.261,442.357 69.354,448.669 92.407,448.669 C115.449,448.669 127.532,442.356 138.199,436.794 C147.918,431.721 156.303,427.336 174.116,427.336 C191.929,427.336 200.324,431.721 210.043,436.794 C220.71,442.357 232.793,448.669 255.835,448.669 C278.887,448.669 290.981,442.356 301.648,436.794 C311.367,431.721 319.763,427.336 337.586,427.336 C355.44,427.336 363.857,431.721 373.596,436.794 C384.273,442.357 396.377,448.669 419.461,448.669 C442.545,448.669 454.649,442.356 465.326,436.794 C475.066,431.721 483.482,427.336 501.336,427.336 C507.232,427.336 512.003,422.565 512.003,416.669 C512.003,410.773 507.229,406.003 501.333,406.003 Z" id="Path" fill="#303C42"></path>
                    <path d="M10.667,365.003 C28.48,365.003 36.875,369.388 46.594,374.461 C57.261,380.024 69.354,386.336 92.407,386.336 C115.449,386.336 127.532,380.023 138.199,374.461 C147.918,369.388 156.303,365.003 174.116,365.003 C191.929,365.003 200.324,369.388 210.043,374.461 C220.71,380.024 232.793,386.336 255.835,386.336 C278.887,386.336 290.981,380.023 301.648,374.461 C311.367,369.388 319.763,365.003 337.586,365.003 C355.44,365.003 363.857,369.388 373.596,374.461 C384.273,380.024 396.377,386.336 419.461,386.336 C442.545,386.336 454.649,380.023 465.326,374.461 C475.066,369.388 483.482,365.003 501.336,365.003 C507.232,365.003 512.003,360.232 512.003,354.336 C512.003,348.44 507.232,343.669 501.336,343.669 C478.253,343.669 466.148,349.982 455.471,355.544 C452.959,356.853 450.523,358.104 448.002,359.258 L448.002,215.669 L480.002,215.669 C484.471,215.669 488.46,212.888 490.002,208.7 C491.554,204.512 490.335,199.804 486.939,196.908 L262.939,4.908 C258.96,1.47 253.043,1.47 249.064,4.908 L25.064,196.908 C21.668,199.804 20.449,204.512 22.001,208.7 C23.543,212.888 27.532,215.669 32.001,215.669 L64.001,215.669 L64.001,359.287 C61.459,358.124 59.001,356.865 56.47,355.544 C45.803,349.981 33.72,343.669 10.668,343.669 C4.771,343.669 0,348.44 0,354.336 C0,360.232 4.771,365.003 10.667,365.003 Z M501.333,424.003 C478.25,424.003 466.145,430.316 455.468,435.878 C445.728,440.951 437.312,445.336 419.458,445.336 C401.604,445.336 393.187,440.951 383.448,435.878 C372.771,430.315 360.667,424.003 337.583,424.003 C314.531,424.003 302.437,430.316 291.77,435.878 C282.051,440.951 273.655,445.336 255.832,445.336 C238.019,445.336 229.634,440.951 219.915,435.878 C209.248,430.315 197.165,424.003 174.113,424.003 C151.071,424.003 138.988,430.316 128.321,435.878 C118.602,440.951 110.217,445.336 92.404,445.336 C74.581,445.336 66.185,440.951 56.466,435.878 C45.799,430.315 33.716,424.003 10.664,424.003 C4.771,424.003 0,428.773 0,434.669 C0,440.565 4.771,445.336 10.667,445.336 C28.48,445.336 36.875,449.721 46.594,454.794 C57.261,460.357 69.354,466.669 92.407,466.669 C115.449,466.669 127.532,460.356 138.199,454.794 C147.918,449.721 156.303,445.336 174.116,445.336 C191.929,445.336 200.324,449.721 210.043,454.794 C220.71,460.357 232.793,466.669 255.835,466.669 C278.887,466.669 290.981,460.356 301.648,454.794 C311.367,449.721 319.763,445.336 337.586,445.336 C355.44,445.336 363.857,449.721 373.596,454.794 C384.273,460.357 396.377,466.669 419.461,466.669 C442.545,466.669 454.649,460.356 465.326,454.794 C475.066,449.721 483.482,445.336 501.336,445.336 C507.232,445.336 512.003,440.565 512.003,434.669 C512.003,428.773 507.229,424.003 501.333,424.003 Z" id="Shape" fill="url(#linearGradient-2)"></path>
                </g>
            </g>
        </g>
    </g>
</svg>